<svg xmlns="http://www.w3.org/2000/svg" fill="none" viewBox="0 0 260 140"><defs/><g clip-path="url(#clip0)"><path fill="#E79F23" d="M260 89.86a41.187 41.187 0 01-1.557 11.249 40.786 40.786 0 01-4.379 10.042c0 11.362-7.687 21.182-18.844 25.853a38.076 38.076 0 01-14.711 2.903H49.357c-9.148 0-17.625-2.463-24.578-6.658a42.198 42.198 0 01-5.643-4.057c-7.727-6.627-12.518-15.785-12.518-25.899A40.874 40.874 0 010 80.904c0-16.637 9.861-30.943 23.989-37.259a39.725 39.725 0 015.797-2.068 39.943 39.943 0 0110.05-1.381h.391c.787 0 1.566.027 2.341.073l.255-.431c.312-.52.632-1.035.959-1.545.59-.928 1.21-1.843 1.859-2.744a63.252 63.252 0 012.125-2.808l.189-.226c.418-.52.845-1.035 1.281-1.543a75.831 75.831 0 014.319-4.615C69.942 10.328 95.618.01 124.482.01c22.459 0 42.988 6.248 58.713 16.572a39.655 39.655 0 0119.532-5.123c22.214 0 40.227 18.226 40.227 40.71a41.786 41.786 0 01-.227 4.259 40.842 40.842 0 0112.725 14.613A40.746 40.746 0 01260 89.86z" opacity=".1"/><path fill="#E79F23" d="M53.56 26.348v4.615h-4.32a70.395 70.395 0 014.32-4.615zM61.484 25.178h-5.798v5.785h5.798v-5.785zM69.407 25.178h-5.798v5.785h5.798v-5.785zM77.332 25.178h-5.798v5.785h5.798v-5.785zM85.254 25.178h-5.797v5.785h5.797v-5.785zM93.18 25.178h-5.798v5.785h5.798v-5.785z" opacity=".2"/><path fill="#E79F23" d="M101.105 25.178h-5.798v5.785h5.798v-5.785z"/><path fill="#E79F23" d="M109.027 25.178h-5.797v5.785h5.797v-5.785zM116.952 25.178h-5.797v5.785h5.797v-5.785zM124.875 25.178h-5.798v5.785h5.798v-5.785z" opacity=".2"/><path fill="#E79F23" d="M132.8 25.178h-5.798v5.785h5.798v-5.785z"/><path fill="#E79F23" d="M140.725 25.178h-5.798v5.785h5.798v-5.785zM148.648 25.178h-5.798v5.785h5.798v-5.785zM156.573 25.178h-5.798v5.785h5.798v-5.785zM164.498 25.178H158.7v5.785h5.798v-5.785zM172.42 25.178h-5.797v5.785h5.797v-5.785zM180.345 25.178h-5.797v5.785h5.797v-5.785z" opacity=".2"/><path fill="#E79F23" d="M188.268 25.178h-5.798v5.785h5.798v-5.785zM196.193 25.178h-5.797v5.785h5.797v-5.785z"/><path fill="#E79F23" d="M204.118 25.178h-5.798v5.785h5.798v-5.785zM212.041 25.178h-5.798v5.785h5.798v-5.785z" opacity=".2"/><path fill="#E79F23" d="M219.966 25.178h-5.798v5.785h5.798v-5.785zM227.889 25.178h-5.798v5.785h5.798v-5.785zM45.636 35.547v2.744h-1.859a52.49 52.49 0 011.86-2.744z"/><path fill="#E79F23" d="M53.56 32.505H47.76v5.786h5.798v-5.786z" opacity=".2"/><path fill="#E79F23" d="M61.484 32.505h-5.798v5.786h5.798v-5.786z"/><path fill="#E79F23" d="M69.407 32.505h-5.798v5.786h5.798v-5.786z" opacity=".2"/><path fill="#E79F23" d="M77.332 32.505h-5.798v5.786h5.798v-5.786z" opacity=".7"/><path fill="#E79F23" d="M85.254 32.505h-5.797v5.786h5.797v-5.786z" opacity=".2"/><path fill="#E79F23" d="M93.18 32.505h-5.798v5.786h5.798v-5.786z" opacity=".4"/><path fill="#E79F23" d="M101.105 32.505h-5.798v5.786h5.798v-5.786z"/><path fill="#E79F23" d="M109.027 32.505h-5.797v5.786h5.797v-5.786z" opacity=".4"/><path fill="#E79F23" d="M116.952 32.505h-5.797v5.786h5.797v-5.786z" opacity=".2"/><path fill="#E79F23" d="M124.875 32.505h-5.798v5.786h5.798v-5.786z" opacity=".4"/><path fill="#E79F23" d="M132.8 32.505h-5.798v5.786h5.798v-5.786z"/><path fill="#E79F23" d="M140.725 32.505h-5.798v5.786h5.798v-5.786zM148.648 32.505h-5.798v5.786h5.798v-5.786z" opacity=".4"/><path fill="#E79F23" d="M156.573 32.505h-5.798v5.786h5.798v-5.786z" opacity=".2"/><path fill="#E79F23" d="M164.498 32.505H158.7v5.786h5.798v-5.786zM172.42 32.505h-5.797v5.786h5.797v-5.786z" opacity=".4"/><path fill="#E79F23" d="M180.345 32.505h-5.797v5.786h5.797v-5.786zM188.268 32.505h-5.798v5.786h5.798v-5.786z" opacity=".2"/><path fill="#E79F23" d="M196.193 32.505h-5.797v5.786h5.797v-5.786z" opacity=".4"/><path fill="#E79F23" d="M204.118 32.505h-5.798v5.786h5.798v-5.786z" opacity=".2"/><path fill="#E79F23" d="M212.041 32.505h-5.798v5.786h5.798v-5.786zM219.966 32.505h-5.798v5.786h5.798v-5.786zM227.889 32.505h-5.798v5.786h5.798v-5.786z"/><path fill="#E79F23" d="M29.786 41.577v4.044H23.99v-1.976a39.722 39.722 0 015.797-2.068zM37.711 40.27v5.35h-5.797v-4.556l5.797-.794z" opacity=".2"/><path fill="#E79F23" d="M45.634 39.835h-5.798v5.785h5.798v-5.785z"/><path fill="#E79F23" d="M53.56 39.835H47.76v5.785h5.798v-5.785z" opacity=".7"/><path fill="#E79F23" d="M61.484 39.835h-5.798v5.785h5.798v-5.785z"/><path fill="#E79F23" d="M69.407 39.835h-5.798v5.785h5.798v-5.785zM77.332 39.835h-5.798v5.785h5.798v-5.785z" opacity=".7"/><path fill="#E79F23" d="M85.254 39.835h-5.797v5.785h5.797v-5.785z" opacity=".2"/><path fill="#E79F23" d="M93.18 39.835h-5.798v5.785h5.798v-5.785zM101.105 39.835h-5.798v5.785h5.798v-5.785z" opacity=".4"/><path fill="#E79F23" d="M109.027 39.835h-5.797v5.785h5.797v-5.785z"/><path fill="#E79F23" d="M116.952 39.835h-5.797v5.785h5.797v-5.785z" opacity=".2"/><path fill="#E79F23" d="M124.875 39.835h-5.798v5.785h5.798v-5.785z" opacity=".4"/><path fill="#E79F23" d="M132.8 39.835h-5.798v5.785h5.798v-5.785z"/><path fill="#E79F23" d="M140.725 39.835h-5.798v5.785h5.798v-5.785z" opacity=".2"/><path fill="#E79F23" d="M148.648 39.835h-5.798v5.785h5.798v-5.785z" opacity=".4"/><path fill="#E79F23" d="M156.573 39.835h-5.798v5.785h5.798v-5.785z" opacity=".2"/><path fill="#E79F23" d="M164.498 39.835H158.7v5.785h5.798v-5.785z"/><path fill="#E79F23" d="M172.42 39.835h-5.797v5.785h5.797v-5.785z" opacity=".2"/><path fill="#E79F23" d="M180.345 39.835h-5.797v5.785h5.797v-5.785zM188.268 39.835h-5.798v5.785h5.798v-5.785z" opacity=".7"/><path fill="#E79F23" d="M196.193 39.835h-5.797v5.785h5.797v-5.785z" opacity=".4"/><path fill="#E79F23" d="M204.118 39.835h-5.798v5.785h5.798v-5.785z" opacity=".2"/><path fill="#E79F23" d="M212.041 39.835h-5.798v5.785h5.798v-5.785zM219.966 39.835h-5.798v5.785h5.798v-5.785zM227.889 39.835h-5.798v5.785h5.798v-5.785z"/><path fill="#E79F23" d="M29.786 47.163H23.99v5.785h5.797v-5.785zM37.711 47.163h-5.797v5.785h5.797v-5.785zM45.634 47.163h-5.798v5.785h5.798v-5.785zM53.56 47.163H47.76v5.785h5.798v-5.785z" opacity=".2"/><path fill="#E79F23" d="M61.484 47.163h-5.798v5.785h5.798v-5.785z"/><path fill="#E79F23" d="M69.407 47.163h-5.798v5.785h5.798v-5.785zM77.332 47.163h-5.798v5.785h5.798v-5.785z" opacity=".7"/><path fill="#E79F23" d="M85.254 47.163h-5.797v5.785h5.797v-5.785zM93.18 47.163h-5.798v5.785h5.798v-5.785z" opacity=".2"/><path fill="#E79F23" d="M101.105 47.163h-5.798v5.785h5.798v-5.785zM109.027 47.163h-5.797v5.785h5.797v-5.785z" opacity=".4"/><path fill="#E79F23" d="M116.952 47.163h-5.797v5.785h5.797v-5.785z"/><path fill="#E79F23" d="M124.875 47.163h-5.798v5.785h5.798v-5.785z" opacity=".2"/><path fill="#E79F23" d="M132.8 47.163h-5.798v5.785h5.798v-5.785zM140.725 47.163h-5.798v5.785h5.798v-5.785zM148.648 47.163h-5.798v5.785h5.798v-5.785zM156.573 47.163h-5.798v5.785h5.798v-5.785z" opacity=".4"/><path fill="#E79F23" d="M164.498 47.163H158.7v5.785h5.798v-5.785zM172.42 47.163h-5.797v5.785h5.797v-5.785zM180.345 47.163h-5.797v5.785h5.797v-5.785zM188.268 47.163h-5.798v5.785h5.798v-5.785z" opacity=".2"/><path fill="#E79F23" d="M196.193 47.163h-5.797v5.785h5.797v-5.785zM204.118 47.163h-5.798v5.785h5.798v-5.785z" opacity=".7"/><path fill="#E79F23" d="M212.041 47.163h-5.798v5.785h5.798v-5.785z" opacity=".4"/><path fill="#E79F23" d="M219.966 47.163h-5.798v5.785h5.798v-5.785z" opacity=".2"/><path fill="#E79F23" d="M227.889 47.163h-5.798v5.785h5.798v-5.785z"/><path fill="#E79F23" d="M29.786 54.492H23.99v5.786h5.797v-5.786zM37.711 54.492h-5.797v5.786h5.797v-5.786z" opacity=".2"/><path fill="#E79F23" d="M45.634 54.492h-5.798v5.786h5.798v-5.786z" opacity=".4"/><path fill="#E79F23" d="M53.56 54.492H47.76v5.786h5.798v-5.786zM61.484 54.492h-5.798v5.786h5.798v-5.786z" opacity=".2"/><path fill="#E79F23" d="M69.407 54.492h-5.798v5.786h5.798v-5.786zM77.332 54.492h-5.798v5.786h5.798v-5.786z" opacity=".7"/><path fill="#E79F23" d="M85.254 54.492h-5.797v5.786h5.797v-5.786zM93.18 54.492h-5.798v5.786h5.798v-5.786z" opacity=".2"/><path fill="#E79F23" d="M101.105 54.492h-5.798v5.786h5.798v-5.786z" opacity=".4"/><path fill="#E79F23" d="M109.027 54.492h-5.797v5.786h5.797v-5.786z"/><path fill="#E79F23" d="M116.952 54.492h-5.797v5.786h5.797v-5.786z" opacity=".2"/><path fill="#E79F23" d="M124.875 54.492h-5.798v5.786h5.798v-5.786zM132.8 54.492h-5.798v5.786h5.798v-5.786zM140.725 54.492h-5.798v5.786h5.798v-5.786z"/><path fill="#E79F23" d="M148.648 54.492h-5.798v5.786h5.798v-5.786z" opacity=".2"/><path fill="#E79F23" d="M156.573 54.492h-5.798v5.786h5.798v-5.786z"/><path fill="#E79F23" d="M164.498 54.492H158.7v5.786h5.798v-5.786zM172.42 54.492h-5.797v5.786h5.797v-5.786zM180.345 54.492h-5.797v5.786h5.797v-5.786zM188.268 54.492h-5.798v5.786h5.798v-5.786zM196.193 54.492h-5.797v5.786h5.797v-5.786z" opacity=".2"/><path fill="#E79F23" d="M204.118 54.492h-5.798v5.786h5.798v-5.786z" opacity=".7"/><path fill="#E79F23" d="M212.041 54.492h-5.798v5.786h5.798v-5.786zM219.966 54.492h-5.798v5.786h5.798v-5.786z" opacity=".2"/><path fill="#E79F23" d="M227.889 54.492h-5.798v5.786h5.798v-5.786z"/><path fill="#E79F23" d="M29.786 61.82H23.99v5.785h5.797V61.82zM37.711 61.82h-5.797v5.785h5.797V61.82zM45.634 61.82h-5.798v5.785h5.798V61.82z" opacity=".2"/><path fill="#E79F23" d="M53.56 61.82H47.76v5.785h5.798V61.82z" opacity=".4"/><path fill="#E79F23" d="M61.484 61.82h-5.798v5.785h5.798V61.82zM69.407 61.82h-5.798v5.785h5.798V61.82z" opacity=".2"/><path fill="#E79F23" d="M77.332 61.82h-5.798v5.785h5.798V61.82z" opacity=".7"/><path fill="#E79F23" d="M85.254 61.82h-5.797v5.785h5.797V61.82zM93.18 61.82h-5.798v5.785h5.798V61.82zM101.105 61.82h-5.798v5.785h5.798V61.82z" opacity=".2"/><path fill="#E79F23" d="M109.027 61.82h-5.797v5.785h5.797V61.82z"/><path fill="#E79F23" d="M116.952 61.82h-5.797v5.785h5.797V61.82z" opacity=".2"/><path fill="#E79F23" d="M124.875 61.82h-5.798v5.785h5.798V61.82zM132.8 61.82h-5.798v5.785h5.798V61.82z"/><path fill="#E79F23" d="M140.725 61.82h-5.798v5.785h5.798V61.82zM148.648 61.82h-5.798v5.785h5.798V61.82zM156.573 61.82h-5.798v5.785h5.798V61.82zM164.498 61.82H158.7v5.785h5.798V61.82zM172.42 61.82h-5.797v5.785h5.797V61.82zM180.345 61.82h-5.797v5.785h5.797V61.82zM188.268 61.82h-5.798v5.785h5.798V61.82zM196.193 61.82h-5.797v5.785h5.797V61.82zM204.118 61.82h-5.798v5.785h5.798V61.82zM212.041 61.82h-5.798v5.785h5.798V61.82z" opacity=".2"/><path fill="#E79F23" d="M219.966 61.82h-5.798v5.785h5.798V61.82z" opacity=".4"/><path fill="#E79F23" d="M227.889 61.82h-5.798v5.785h5.798V61.82z"/><path fill="#E79F23" d="M29.786 69.15H23.99v5.785h5.797V69.15zM37.711 69.15h-5.797v5.785h5.797V69.15zM45.634 69.15h-5.798v5.785h5.798V69.15zM53.56 69.15H47.76v5.785h5.798V69.15zM61.484 69.15h-5.798v5.785h5.798V69.15z" opacity=".7"/><path fill="#E79F23" d="M69.407 69.15h-5.798v5.785h5.798V69.15zM77.332 69.15h-5.798v5.785h5.798V69.15zM85.254 69.15h-5.797v5.785h5.797V69.15zM93.18 69.15h-5.798v5.785h5.798V69.15zM101.105 69.15h-5.798v5.785h5.798V69.15zM109.027 69.15h-5.797v5.785h5.797V69.15z" opacity=".2"/><path fill="#E79F23" d="M116.952 69.15h-5.797v5.785h5.797V69.15z"/><path fill="#E79F23" d="M124.875 69.15h-5.798v5.785h5.798V69.15zM132.8 69.15h-5.798v5.785h5.798V69.15zM140.725 69.15h-5.798v5.785h5.798V69.15z" opacity=".2"/><path fill="#E79F23" d="M148.648 69.15h-5.798v5.785h5.798V69.15z"/><path fill="#E79F23" d="M156.573 69.15h-5.798v5.785h5.798V69.15zM164.498 69.15H158.7v5.785h5.798V69.15zM172.42 69.15h-5.797v5.785h5.797V69.15zM180.345 69.15h-5.797v5.785h5.797V69.15zM188.268 69.15h-5.798v5.785h5.798V69.15zM196.193 69.15h-5.797v5.785h5.797V69.15zM204.118 69.15h-5.798v5.785h5.798V69.15zM212.041 69.15h-5.798v5.785h5.798V69.15zM219.966 69.15h-5.798v5.785h5.798V69.15z" opacity=".2"/><path fill="#E79F23" d="M227.889 69.15h-5.798v5.785h5.798V69.15z"/><path fill="#767D9F" d="M166.936 90.433c4.377 0 7.925-3.54 7.925-7.908 0-4.367-3.548-7.908-7.925-7.908-4.376 0-7.925 3.54-7.925 7.908s3.549 7.908 7.925 7.908z"/><path fill="#AE6E79" d="M166.525 72.465a153.346 153.346 0 012.014 10.41c.166 1.038.313 2.134-.064 3.116-.316.818-.959 1.458-1.464 2.175-.504.716-.886 1.635-.579 2.456.307.82 1.202 1.27 2.057 1.501 2.445.658 5.052.18 7.486-.533a12.13 12.13 0 003.139-1.297c1.031-.653 1.877-1.56 2.654-2.495 3.548-4.293 5.871-9.445 8.057-14.566a8.904 8.904 0 01-7.525-3.026c-.895-1.05-1.552-2.512-1.048-3.796-1.479.81-3.236.864-4.829 1.417-.988.377-1.939.844-2.841 1.395-1.088.628-2.17 1.267-3.246 1.919-1.229.74-2.381 1.397-3.811 1.324z"/><path fill="#767D9F" d="M183.1 78.402c-1.389 2.697-3.195 5.29-5.775 6.895-2.58 1.605-6.052 2.04-8.636.453-1.273-.775-2.237-1.955-3.348-2.948-1.111-.993-2.5-1.844-3.993-1.714-1.646.143-2.934 1.424-4.037 2.65-1.672 1.865-3.288 3.808-4.472 6.015-2.273 4.241-2.812 9.199-2.712 14.006.1 4.808.798 9.591.814 14.399.023 5.915-.982 11.782-1.998 17.608 9.341-1.148 18.693 1.361 28.055 2.311 5.991.614 12.027.601 18.05.585 1.059 0 2.186-.027 3.068-.612a4.127 4.127 0 001.27-1.506c.832-1.531 1.166-3.277 1.398-5.003.589-4.359.607-8.772.623-13.172.041-10.659.079-21.356-1.277-31.931-.335-2.602-.762-5.217-1.762-7.65-1-2.433-2.632-4.672-4.913-5.976-1.466-.839-4.864-2.3-6.591-1.454-1.939.944-2.834 5.24-3.764 7.044z"/><path fill="#4C4981" d="M183.791 108.502c-.352-6.577-1.786-13.596 1.266-19.434.75-1.433-1.941-3.222-1.109-4.61a20.846 20.846 0 002.286-5.427c.173-.656.311-1.35.148-2.007-.302-1.2-1.491-1.915-2.5-2.645-1.114-.807-1.687-3.268-2.046-4.599-.359-1.331 2.857.272 4.15-.202 1.796-.655 4.078-.243 5.869.422 1 .367 2.086.4 3.152.426 2.07.055 4.148.107 6.202-.147.923-.116 1.848-.29 2.775-.238 2.366.134 4.423 1.748 5.823 3.658 1.4 1.91 2.291 4.134 3.438 6.203.957 1.723 2.098 3.351 2.914 5.145.723 1.588 1.18 3.293 1.632 4.99l1.166 4.352c.204.622.301 1.275.286 1.93-.059.696-.368 1.344-.682 1.964a37.235 37.235 0 01-4.243 6.461c-2.452 3-5.429 5.706-6.886 9.298-.568 1.399-.884 2.887-1.173 4.37a160.056 160.056 0 00-2.477 17.95 39.66 39.66 0 00-12.618-3.449c-1.271-.132-2.909.118-4.119-.227-2.022-.574-2.245-3.987-2.552-5.774-.491-2.846-.588-5.742-.607-8.618-.022-3.27.08-6.533-.095-9.792zM139.37 96.203c.957 5.443 2.012 10.902 4.091 16.016-.052.05-.104.095-.156.14a12.1 12.1 0 01-.575.454c-.466.326-.978.603-1.364 1.029a1.832 1.832 0 00-.341.556 1.248 1.248 0 000 1.014c-1.084.478-2.343.331-3.559.286-1.048-.039-2.064 0-2.905.573-1.168.803-1.52 2.345-1.709 3.747a41.93 41.93 0 00-.297 2.968 42.76 42.76 0 00.004 5.634c-3.714-.089-7.098-2.021-10.3-3.899-.732-.428-1.486-.88-1.961-1.587a3.576 3.576 0 01-.525-2.334c0-.115.02-.227.036-.344a9.39 9.39 0 01.521-1.969 24.283 24.283 0 014.361-7.405c.814-.948 1.729-1.875 2.109-3.066.166-.519.227-1.07.395-1.587.755-2.241 3.478-3.3 4.41-5.475.227-.519.331-1.088.613-1.587.254-.415.581-.78.966-1.078.166-.138.339-.272.509-.406a67.413 67.413 0 004.616-3.957c.276-.258.549-.52.818-.785a13.496 13.496 0 00.243 3.062z"/><path fill="#4C4981" d="M162.273 80.106c-.328.344-.682.669-1.03.99l-.093.085-.368.34a8.85 8.85 0 00-1.716 1.993l-.039.064c-1.159 2.07-.729 4.62-.407 6.971.401 2.93.581 5.887.539 8.845-.059 4.082-.541 8.137-.55 12.215 0 .925.021 1.848.061 2.773.066 1.504.18 3.005.316 4.506.148 1.647.325 3.291.491 4.935.132 1.273.257 2.543.362 3.813.052.657.102 1.313.143 1.97.048.771.086 1.545.109 2.316.016.49.025.977.025 1.467v.832c0 .531-.014 1.06-.043 1.588a45.41 45.41 0 01-.139 2.041c-.07.742-.195 1.551-.718 2.073-.032.032-.066.061-.1.091l-.736-.091a75.704 75.704 0 00-15.296-.272c.111-.767.214-1.531.314-2.3.045-.363.091-.728.134-1.093.05-.417.098-.835.143-1.252a142.264 142.264 0 00.845-18.476c0-.327-.013-.653-.04-.978a6.187 6.187 0 00-.121-.868 11.302 11.302 0 00-.682-1.923c-.05-.118-.097-.227-.145-.352-.027-.061-.052-.125-.077-.186 1.309-1.163 2.24-2.721 3.136-4.254 1.452-2.47 2.939-5.049 3.182-7.902.243-2.853-1.178-6.057-3.909-6.928-.744-.227-1.53-.29-2.296-.424-.723-.127-2.229-.415-3.066-.932-.454.466-.909.923-1.363 1.372a5.001 5.001 0 01.493-1.975l.323.015a.605.605 0 01-.037-.226c0-.243.168-.517.527-.821 1.071-.907 2.755-1.11 3.43-2.336.282-.51.33-1.118.557-1.653.652-1.527 2.525-2.09 3.652-3.31 1.127-1.22 1.409-2.948 2.321-4.308a6.496 6.496 0 012.727-2.268c.091-.043.184-.086.277-.125 1.886-.805 4.127-.989 6.082-.984.759 0 2.727.023 3.691.406.156.056.299.143.42.256 1.028 1.116-.57 3.472-1.329 4.28z"/><path fill="#4C4981" d="M139.709 91.02a13.867 13.867 0 0110.623 1.105c1.636.907 3.104 2.173 4.004 3.806 1.353 2.45 1.294 5.402 1.198 8.198-.048 1.399-.109 2.849-.727 4.105-.716 1.454-2.066 2.452-3.443 3.268a9.636 9.636 0 01-2.8 1.209c-1.528.331-3.114.05-4.653-.227-1.672-.308-3.468-.68-4.629-1.923-.682-.721-1.055-1.658-1.423-2.574-.529-1.323-1.059-2.645-1.591-3.964-.92-2.293-1.232-4.2-.016-6.434.553-1.019 1.228-1.971 1.773-2.996.273-.522 1.25-3.438 1.684-3.572z"/><path fill="#504F60" d="M235.227 130.225v6.781a38.076 38.076 0 01-14.711 2.903h-61.293c-.032.032-.066.061-.1.091l-.737-.091H49.356c-9.147 0-17.624-2.463-24.577-6.658v-10.353l52.437-6.039h.04l30.537 2.58 7.902.681 4.105.347 8.495.719 4.371.369 6.364.54.895.075 4.586.388 6.223.51 8.75.739 14.586 1.236 10.262.869 16.85 1.426 3.204.27.346.03.3.025 4.232.358 4.645.395.539.045 20.779 1.764z"/><path fill="#9C9CA1" d="M173.636 129.976l-65.713-11.192-2.548 12.857 30.123 3.599 9.275 1.159 25.513-5.015 3.35-1.408z"/><path fill="#9C9CA1" d="M139.62 135.755l32.923-6.176a1.142 1.142 0 011.243.634c.071.151.108.317.107.484.001.266-.092.523-.262.727a1.13 1.13 0 01-.667.391l-32.153 6.008-1.191-2.068z"/><path fill="#AE6E79" d="M153.902 116.335c1.025-.095 2.064-.257 2.987-.71 1.136-.565 2.02-1.538 3.072-2.254 2.314-1.588 5.409-1.801 8.062-.889 2.652.911 4.866 2.864 6.416 5.195 1.029 1.554 1.802 3.536 1.075 5.25a6.897 6.897 0 01-.937 1.461l-1.895 2.472a6.54 6.54 0 01-1.287 1.381c-.709.515-1.59.726-2.459.853-2.306.335-4.654.145-6.979.299-3.993.266-7.893 1.549-11.896 1.506-2.3-.025-4.57-.488-6.818-.95l-9.948-2.041c-1.731-.354-3.688-.871-4.504-2.438-.366-.706-.434-1.522-.477-2.316-.119-2.186 0-4.617 1.518-6.193 1.427-1.479 3.684-1.946 5.388-3.039 2.087-1.341 2.775-.907 4.975.1a27.336 27.336 0 0013.707 2.313z"/><path fill="#000" d="M153.902 116.335c1.025-.095 2.064-.257 2.987-.71 1.136-.565 2.02-1.538 3.072-2.254 2.314-1.588 5.409-1.801 8.062-.889 2.652.911 4.866 2.864 6.416 5.195 1.029 1.554 1.802 3.536 1.075 5.25a6.897 6.897 0 01-.937 1.461l-1.895 2.472a6.54 6.54 0 01-1.287 1.381c-.709.515-1.59.726-2.459.853-2.306.335-4.654.145-6.979.299-3.993.266-7.893 1.549-11.896 1.506-2.3-.025-4.57-.488-6.818-.95l-9.948-2.041c-1.731-.354-3.688-.871-4.504-2.438-.366-.706-.434-1.522-.477-2.316-.119-2.186 0-4.617 1.518-6.193 1.427-1.479 3.684-1.946 5.388-3.039 2.087-1.341 2.775-.907 4.975.1a27.336 27.336 0 0013.707 2.313z" opacity=".05"/><path fill="#AE6E79" d="M193.85 113.226c-2.791 1.077-5.598 2.159-8.52 2.8-4.9 1.078-10.028.907-14.889 2.139-2.568.653-5.121 1.705-7.759 1.492-1.18-.095-2.318-.453-3.466-.726-6.448-1.587-13.777-1.072-19.014 3.01-1.791 1.395-3.257 3.134-4.586 4.989a3.319 3.319 0 00-.499 2.797 3.33 3.33 0 001.842 2.165 19.714 19.714 0 006.45 1.717c2.984.263 5.982-.159 8.95-.58 4.405-.624 8.811-1.25 13.205-1.951 1.577-.252 3.154-.512 4.741-.712 11.415-1.44 23.038.311 34.484-.891 1.156-.123 2.334-.281 3.386-.774 2.664-1.247 3.982-4.535 3.432-7.425-.55-2.889-2.673-5.29-5.227-6.765-2.141-1.24-4.45-1.741-6.835-2.267-2.213-.515-3.563.165-5.695.982z"/><path fill="#000" d="M218.334 95.954c1.259 1.646 1.527 3.855 1.391 5.916-.136 2.062-.627 4.101-.7 6.171-.1 2.84.586 5.67.47 8.5-.081 1.98-.552 3.921-1.109 5.822-.656 2.243-1.606 4.653-3.681 5.731-2.755 1.431-8.532.626-11.43 1.746.264-1.64 2.791-4.014 3.055-5.654.181-1.134.365-2.299.17-3.436-.25-1.449-1.102-2.735-2.114-3.805-1.609-1.703-3.709-2.985-6.016-3.402-2.306-.417-7.954-.075-9.8 1.379-.227-1.501 4-2.948 5.487-3.273.741-.165 1.591-.072 2.184-.542 1.136-.889.311-2.66.366-4.082.043-1.134.707-2.172.841-3.306.227-1.815-.959-3.663-.493-5.443.172-.658.556-1.236.822-1.862.809-1.916.455-4.103.023-6.14-.268-1.278-.53-2.72.184-3.812.661-1.018 2.539 2.608 3.741 2.44 3.97-.555 7.564-3.492 10.77-1.088 1.635 1.225 1.848 2.495 2.5 4.243.635 1.665 2.278 2.518 3.339 3.897z" opacity=".1"/><path fill="#4C4981" d="M219.016 95.954c1.259 1.646 1.527 3.855 1.391 5.916-.136 2.062-.627 4.101-.7 6.171-.1 2.84.586 5.67.47 8.5-.081 1.98-.552 3.921-1.109 5.822-.657 2.243-1.607 4.653-3.682 5.731-2.754 1.431-8.531.626-11.429 1.746.264-1.64 2.791-4.014 3.054-5.654.182-1.134.366-2.299.171-3.436-.25-1.449-1.102-2.735-2.114-3.805-1.609-1.703-3.709-2.985-6.016-3.402-2.306-.417-7.954-.075-9.8 1.379-.227-1.501 4-2.948 5.487-3.273.741-.165 1.591-.072 2.184-.542 1.136-.889.311-2.66.366-4.082.043-1.134.707-2.172.841-3.306.227-1.815-.959-3.663-.494-5.443.173-.658.557-1.236.823-1.862.809-1.916.455-4.103.023-6.14-.268-1.278-.53-2.72.184-3.811.661-1.019 1.955-1.404 3.157-1.574a15.573 15.573 0 0111.363 2.925c1.635 1.225 1.848 2.495 2.5 4.243.625 1.665 2.269 2.518 3.33 3.897z"/><path fill="#9C9CA1" d="M68.636 85.208l12.357 45.571c.152.558.47 1.057.913 1.43.443.373.99.603 1.567.659l55.618 5.331a2.851 2.851 0 003.045-2.166 2.84 2.84 0 00-.004-1.344L128.6 79.72a2.854 2.854 0 00-2.982-2.157l-54.452 4.064a2.856 2.856 0 00-2.109 1.197 2.841 2.841 0 00-.42 2.384z"/><path fill="#fff" d="M178.889 94.1c3.376 0 6.113-2.766 6.113-6.18 0-3.412-2.737-6.18-6.113-6.18-3.377 0-6.114 2.768-6.114 6.18 0 3.414 2.737 6.18 6.114 6.18z"/><path fill="#fff" d="M183.909 76.647s1.289 3.824-2.514 5.432l-.486.848 2.382 2.345s2.936-5.346 2.618-7.244c0 0-.454-1.927-2-1.38z"/><path fill="#E79F23" d="M179.591 94.1c3.256 0 5.895-2.633 5.895-5.882 0-3.25-2.639-5.883-5.895-5.883s-5.896 2.634-5.896 5.883 2.64 5.883 5.896 5.883zM185.939 78.897l-.937-1.542-1.363-.193c.291-5.078-1.03-6.59-1.03-6.59l-.307-.03-1.336-.13-2.514-2.603v-.74c3.532.42 5.484 2.094 6.539 4.056 1.864 3.442.948 7.772.948 7.772z"/><path fill="#000" stroke="#4C4981" stroke-miterlimit="10" d="M182.314 69.608v.934l-1.337-.13-2.513-2.603s3.888.869 3.85 1.799zM185.939 78.897l-.937-1.542v-6.221c1.853 3.433.937 7.763.937 7.763z" opacity=".1"/><path fill="#fff" d="M168.697 90.636c1.569-.904 1.501-3.95-.151-6.806-1.652-2.855-4.262-4.436-5.831-3.533-1.568.904-1.501 3.951.151 6.806s4.262 4.437 5.831 3.533z"/><path fill="#E79F23" d="M166.591 84.968c1.652 2.855 3.68 4.762 2.111 5.67-1.568.907-6.136.453-7.788-2.404-1.653-2.858-.153-6.804 1.416-7.711 1.568-.907 2.606 1.583 4.261 4.445z"/><path fill="#000" d="M181.302 64.398c0 9.124-6.257 17.916-15.4 17.916-4.391 0-8.602-1.74-11.707-4.838a16.504 16.504 0 01-4.85-11.683c0-4.382 1.745-8.584 4.85-11.682a16.574 16.574 0 0111.707-4.84c9.143.01 15.4 6.001 15.4 15.127z" opacity=".1"/><path fill="#AE6E79" d="M165.902 81.87c9.144 0 16.557-7.397 16.557-16.521 0-9.125-7.413-16.522-16.557-16.522-9.144 0-16.557 7.397-16.557 16.522 0 9.124 7.413 16.521 16.557 16.521z"/><path fill="#444053" d="M164.448 58.028c1.97.723 3.136 2.755 4.904 3.887 2.5 1.587 5.755 1.177 8.609.392 1.591-.433 3.255-.961 4.821-.48.23.101.484.137.734.104.341-.098.509-.474.62-.81 1.937-5.76 1.066-12.285-1.856-17.614-.755-1.375-1.66-2.704-2.905-3.658-.982-.751-2.136-1.243-3.3-1.663a33.023 33.023 0 00-6.564-1.617 4.082 4.082 0 00-1.197-.038c-.548.088-1.039.383-1.528.646a15.652 15.652 0 01-6.786 1.84c-3.182.12-6.818-.629-9.27 1.408-2.955 2.442-2.219 7.207-4.135 10.523-1.268 2.193-3.713 3.785-4.115 6.282a5.768 5.768 0 00.143 2.283c.936 3.842 4.663 6.818 8.636 6.888a3.285 3.285 0 001.764-.36c.355-.243.669-.54.929-.883 2.603-3.075 5.58-8.935 10.496-7.13z"/><path fill="#000" d="M184.136 59.45c-.111.335-.279.712-.62.81a1.364 1.364 0 01-.734-.105c-1.566-.48-3.239.048-4.818.481-2.857.785-6.119 1.204-8.609-.392-1.771-1.134-2.935-3.175-4.907-3.888-4.916-1.814-7.893 4.055-10.503 7.13a3.99 3.99 0 01-.929.883 3.286 3.286 0 01-1.764.36c-3.959-.07-7.688-3.045-8.636-6.887a9.065 9.065 0 01-.132-.68c0 .02 0 .038-.011.059a5.787 5.787 0 00.143 2.283c.936 3.842 4.666 6.818 8.636 6.888a3.285 3.285 0 001.764-.36 3.99 3.99 0 00.929-.883c2.61-3.075 5.587-8.935 10.503-7.13 1.972.723 3.136 2.755 4.907 3.887 2.5 1.587 5.752 1.177 8.609.392 1.591-.433 3.252-.961 4.818-.48.23.101.484.137.734.104.341-.098.509-.474.62-.81a20.456 20.456 0 001.019-7.316 20.083 20.083 0 01-1.019 5.654z" opacity=".1"/></g><defs><clipPath id="clip0"><path fill="#fff" d="M0 0h260v140H0z"/></clipPath></defs></svg>